<svg width="33" height="28" viewBox="0 0 33 28" fill="none" xmlns="http://www.w3.org/2000/svg">
<path d="M0 13.5487C0 12.7893 0.564308 12.1617 1.29646 12.0624L1.5 12.0487L27.868 12.0499L18.342 2.56284C17.755 1.97832 17.7529 1.02857 18.3375 0.441526C18.8688 -0.0921516 19.7021 -0.142359 20.2902 0.292084L20.4588 0.436958L32.5588 12.485C32.6362 12.562 32.7034 12.6454 32.7604 12.7335C32.7765 12.76 32.7929 12.7871 32.8085 12.8147C32.8228 12.8385 32.8357 12.8631 32.8479 12.888C32.8648 12.9242 32.8814 12.9616 32.8964 12.9998C32.9086 13.0292 32.9188 13.0579 32.9281 13.0867C32.9391 13.1225 32.9499 13.1606 32.9591 13.1994C32.966 13.2264 32.9714 13.2524 32.9762 13.2785C32.9828 13.3174 32.9885 13.3576 32.9926 13.3983C32.9961 13.4293 32.9982 13.4601 32.9993 13.4909C32.9996 13.5095 33 13.5291 33 13.5487L32.9992 13.6068C32.9981 13.6362 32.9961 13.6657 32.9932 13.695L33 13.5487C33 13.6434 32.9912 13.736 32.9745 13.8258C32.9706 13.8472 32.9659 13.8692 32.9608 13.8911C32.9502 13.9363 32.9378 13.9798 32.9237 14.0224C32.9167 14.0436 32.9086 14.0662 32.8999 14.0887C32.8824 14.1338 32.8633 14.1768 32.8424 14.2188C32.8327 14.2385 32.8218 14.2591 32.8103 14.2795C32.7916 14.3128 32.7723 14.3445 32.7519 14.3754C32.7374 14.3972 32.7215 14.4199 32.7048 14.4423L32.6919 14.4596C32.6514 14.5124 32.6076 14.5624 32.5607 14.6094L32.5589 14.6108L20.4589 26.6608C19.8719 27.2453 18.9221 27.2434 18.3375 26.6564C17.8061 26.1227 17.7594 25.2893 18.1964 24.703L18.3419 24.535L27.864 15.0499L1.5 15.0487C0.671573 15.0487 0 14.3771 0 13.5487Z" fill="#F5F5F5"/>
</svg>
