<?xml version="1.0" encoding="UTF-8" ?>
<svg version="1.1" width="600" height="600" xmlns="http://www.w3.org/2000/svg" shape-rendering="crispEdges">
<rect x="90" y="150" width="30" height="30" fill="#F8B23A" />
<rect x="120" y="150" width="30" height="30" fill="#F8B23A" />
<rect x="150" y="150" width="30" height="30" fill="#F8B23A" />
<rect x="180" y="150" width="30" height="30" fill="#F8B23A" />
<rect x="210" y="150" width="30" height="30" fill="#E38D50" />
<rect x="240" y="150" width="30" height="30" fill="#E38D50" />
<rect x="270" y="150" width="30" height="30" fill="#E38D50" />
<rect x="300" y="150" width="30" height="30" fill="#E38D50" />
<rect x="330" y="150" width="30" height="30" fill="#E38D50" />
<rect x="360" y="150" width="30" height="30" fill="#E38D50" />
<rect x="390" y="150" width="30" height="30" fill="#E38D50" />
<rect x="420" y="150" width="30" height="30" fill="#E38D50" />
<rect x="450" y="150" width="30" height="30" fill="#E38D50" />
<rect x="480" y="150" width="30" height="30" fill="#E38D50" />
<rect x="60" y="180" width="30" height="30" fill="#F8B23A" />
<rect x="90" y="180" width="30" height="30" fill="#C66631" />
<rect x="120" y="180" width="30" height="30" fill="#C66631" />
<rect x="150" y="180" width="30" height="30" fill="#C66631" />
<rect x="180" y="180" width="30" height="30" fill="#C66631" />
<rect x="210" y="180" width="30" height="30" fill="#F8B23A" />
<rect x="240" y="180" width="30" height="30" fill="#E38D50" />
<rect x="270" y="180" width="30" height="30" fill="#C66631" />
<rect x="300" y="180" width="30" height="30" fill="#C66631" />
<rect x="330" y="180" width="30" height="30" fill="#C66631" />
<rect x="360" y="180" width="30" height="30" fill="#C66631" />
<rect x="390" y="180" width="30" height="30" fill="#C66631" />
<rect x="420" y="180" width="30" height="30" fill="#C66631" />
<rect x="450" y="180" width="30" height="30" fill="#C66631" />
<rect x="480" y="180" width="30" height="30" fill="#C66631" />
<rect x="510" y="180" width="30" height="30" fill="#E38D50" />
<rect x="60" y="210" width="30" height="30" fill="#F8B23A" />
<rect x="90" y="210" width="30" height="30" fill="#C66631" />
<rect x="120" y="210" width="30" height="30" fill="#E38D50" />
<rect x="150" y="210" width="30" height="30" fill="#E38D50" />
<rect x="180" y="210" width="30" height="30" fill="#E38D50" />
<rect x="210" y="210" width="30" height="30" fill="#F8B23A" />
<rect x="240" y="210" width="30" height="30" fill="#E38D50" />
<rect x="270" y="210" width="30" height="30" fill="#C66631" />
<rect x="300" y="210" width="30" height="30" fill="#C66631" />
<rect x="330" y="210" width="30" height="30" fill="#C66631" />
<rect x="360" y="210" width="30" height="30" fill="#C66631" />
<rect x="390" y="210" width="30" height="30" fill="#C66631" />
<rect x="420" y="210" width="30" height="30" fill="#C66631" />
<rect x="450" y="210" width="30" height="30" fill="#C66631" />
<rect x="480" y="210" width="30" height="30" fill="#C66631" />
<rect x="510" y="210" width="30" height="30" fill="#C66631" />
<rect x="60" y="240" width="30" height="30" fill="#C66631" />
<rect x="90" y="240" width="30" height="30" fill="#C66631" />
<rect x="120" y="240" width="30" height="30" fill="#C66631" />
<rect x="150" y="240" width="30" height="30" fill="#C66631" />
<rect x="180" y="240" width="30" height="30" fill="#C66631" />
<rect x="210" y="240" width="30" height="30" fill="#C66631" />
<rect x="240" y="240" width="30" height="30" fill="#724B2C" />
<rect x="270" y="240" width="30" height="30" fill="#724B2C" />
<rect x="300" y="240" width="30" height="30" fill="#724B2C" />
<rect x="330" y="240" width="30" height="30" fill="#724B2C" />
<rect x="360" y="240" width="30" height="30" fill="#E38D50" />
<rect x="390" y="240" width="30" height="30" fill="#724B2C" />
<rect x="420" y="240" width="30" height="30" fill="#E38D50" />
<rect x="450" y="240" width="30" height="30" fill="#724B2C" />
<rect x="480" y="240" width="30" height="30" fill="#724B2C" />
<rect x="510" y="240" width="30" height="30" fill="#724B2C" />
<rect x="60" y="270" width="30" height="30" fill="#F8B23A" />
<rect x="90" y="270" width="30" height="30" fill="#F8B23A" />
<rect x="120" y="270" width="30" height="30" fill="#F8B23A" />
<rect x="150" y="270" width="30" height="30" fill="#F8B23A" />
<rect x="180" y="270" width="30" height="30" fill="#F8B23A" />
<rect x="210" y="270" width="30" height="30" fill="#F8B23A" />
<rect x="240" y="270" width="30" height="30" fill="#E38D50" />
<rect x="270" y="270" width="30" height="30" fill="#C66631" />
<rect x="300" y="270" width="30" height="30" fill="#C66631" />
<rect x="330" y="270" width="30" height="30" fill="#C66631" />
<rect x="360" y="270" width="30" height="30" fill="#F8B23A" />
<rect x="390" y="270" width="30" height="30" fill="#724B2C" />
<rect x="420" y="270" width="30" height="30" fill="#F8B23A" />
<rect x="450" y="270" width="30" height="30" fill="#C66631" />
<rect x="480" y="270" width="30" height="30" fill="#C66631" />
<rect x="510" y="270" width="30" height="30" fill="#C66631" />
<rect x="60" y="300" width="30" height="30" fill="#F8B23A" />
<rect x="90" y="300" width="30" height="30" fill="#C66631" />
<rect x="120" y="300" width="30" height="30" fill="#C66631" />
<rect x="150" y="300" width="30" height="30" fill="#C66631" />
<rect x="180" y="300" width="30" height="30" fill="#C66631" />
<rect x="210" y="300" width="30" height="30" fill="#F8B23A" />
<rect x="240" y="300" width="30" height="30" fill="#E38D50" />
<rect x="270" y="300" width="30" height="30" fill="#C66631" />
<rect x="300" y="300" width="30" height="30" fill="#724B2C" />
<rect x="330" y="300" width="30" height="30" fill="#724B2C" />
<rect x="360" y="300" width="30" height="30" fill="#E38D50" />
<rect x="390" y="300" width="30" height="30" fill="#E38D50" />
<rect x="420" y="300" width="30" height="30" fill="#E38D50" />
<rect x="450" y="300" width="30" height="30" fill="#724B2C" />
<rect x="480" y="300" width="30" height="30" fill="#452A1B" />
<rect x="510" y="300" width="30" height="30" fill="#C66631" />
<rect x="60" y="330" width="30" height="30" fill="#F8B23A" />
<rect x="90" y="330" width="30" height="30" fill="#C66631" />
<rect x="120" y="330" width="30" height="30" fill="#E38D50" />
<rect x="150" y="330" width="30" height="30" fill="#E38D50" />
<rect x="180" y="330" width="30" height="30" fill="#E38D50" />
<rect x="210" y="330" width="30" height="30" fill="#F8B23A" />
<rect x="240" y="330" width="30" height="30" fill="#E38D50" />
<rect x="270" y="330" width="30" height="30" fill="#C66631" />
<rect x="300" y="330" width="30" height="30" fill="#C66631" />
<rect x="330" y="330" width="30" height="30" fill="#C66631" />
<rect x="360" y="330" width="30" height="30" fill="#C66631" />
<rect x="390" y="330" width="30" height="30" fill="#E38D50" />
<rect x="420" y="330" width="30" height="30" fill="#C66631" />
<rect x="450" y="330" width="30" height="30" fill="#C66631" />
<rect x="480" y="330" width="30" height="30" fill="#724B2C" />
<rect x="510" y="330" width="30" height="30" fill="#C66631" />
<rect x="60" y="360" width="30" height="30" fill="#F8B23A" />
<rect x="90" y="360" width="30" height="30" fill="#C66631" />
<rect x="120" y="360" width="30" height="30" fill="#C66631" />
<rect x="150" y="360" width="30" height="30" fill="#C66631" />
<rect x="180" y="360" width="30" height="30" fill="#C66631" />
<rect x="210" y="360" width="30" height="30" fill="#F8B23A" />
<rect x="240" y="360" width="30" height="30" fill="#E38D50" />
<rect x="270" y="360" width="30" height="30" fill="#C66631" />
<rect x="300" y="360" width="30" height="30" fill="#724B2C" />
<rect x="330" y="360" width="30" height="30" fill="#724B2C" />
<rect x="360" y="360" width="30" height="30" fill="#724B2C" />
<rect x="390" y="360" width="30" height="30" fill="#724B2C" />
<rect x="420" y="360" width="30" height="30" fill="#724B2C" />
<rect x="450" y="360" width="30" height="30" fill="#724B2C" />
<rect x="480" y="360" width="30" height="30" fill="#724B2C" />
<rect x="510" y="360" width="30" height="30" fill="#C66631" />
<rect x="60" y="390" width="30" height="30" fill="#F8B23A" />
<rect x="90" y="390" width="30" height="30" fill="#C66631" />
<rect x="120" y="390" width="30" height="30" fill="#E38D50" />
<rect x="150" y="390" width="30" height="30" fill="#E38D50" />
<rect x="180" y="390" width="30" height="30" fill="#E38D50" />
<rect x="210" y="390" width="30" height="30" fill="#F8B23A" />
<rect x="240" y="390" width="30" height="30" fill="#E38D50" />
<rect x="270" y="390" width="30" height="30" fill="#C66631" />
<rect x="300" y="390" width="30" height="30" fill="#C66631" />
<rect x="330" y="390" width="30" height="30" fill="#C66631" />
<rect x="360" y="390" width="30" height="30" fill="#C66631" />
<rect x="390" y="390" width="30" height="30" fill="#C66631" />
<rect x="420" y="390" width="30" height="30" fill="#C66631" />
<rect x="450" y="390" width="30" height="30" fill="#C66631" />
<rect x="480" y="390" width="30" height="30" fill="#724B2C" />
<rect x="510" y="390" width="30" height="30" fill="#C66631" />
<rect x="60" y="420" width="30" height="30" fill="#F8B23A" />
<rect x="90" y="420" width="30" height="30" fill="#C66631" />
<rect x="120" y="420" width="30" height="30" fill="#E38D50" />
<rect x="150" y="420" width="30" height="30" fill="#E38D50" />
<rect x="180" y="420" width="30" height="30" fill="#E38D50" />
<rect x="210" y="420" width="30" height="30" fill="#F8B23A" />
<rect x="240" y="420" width="30" height="30" fill="#E38D50" />
<rect x="270" y="420" width="30" height="30" fill="#C66631" />
<rect x="300" y="420" width="30" height="30" fill="#724B2C" />
<rect x="330" y="420" width="30" height="30" fill="#724B2C" />
<rect x="360" y="420" width="30" height="30" fill="#724B2C" />
<rect x="390" y="420" width="30" height="30" fill="#724B2C" />
<rect x="420" y="420" width="30" height="30" fill="#724B2C" />
<rect x="450" y="420" width="30" height="30" fill="#724B2C" />
<rect x="480" y="420" width="30" height="30" fill="#724B2C" />
<rect x="510" y="420" width="30" height="30" fill="#C66631" />
<rect x="60" y="450" width="30" height="30" fill="#F8B23A" />
<rect x="90" y="450" width="30" height="30" fill="#F8B23A" />
<rect x="120" y="450" width="30" height="30" fill="#F8B23A" />
<rect x="150" y="450" width="30" height="30" fill="#F8B23A" />
<rect x="180" y="450" width="30" height="30" fill="#F8B23A" />
<rect x="210" y="450" width="30" height="30" fill="#F8B23A" />
<rect x="240" y="450" width="30" height="30" fill="#E38D50" />
<rect x="270" y="450" width="30" height="30" fill="#C66631" />
<rect x="300" y="450" width="30" height="30" fill="#C66631" />
<rect x="330" y="450" width="30" height="30" fill="#C66631" />
<rect x="360" y="450" width="30" height="30" fill="#C66631" />
<rect x="390" y="450" width="30" height="30" fill="#C66631" />
<rect x="420" y="450" width="30" height="30" fill="#C66631" />
<rect x="450" y="450" width="30" height="30" fill="#C66631" />
<rect x="480" y="450" width="30" height="30" fill="#C66631" />
<rect x="510" y="450" width="30" height="30" fill="#C66631" />
</svg>