<svg width="60" height="60" viewBox="0 0 60 60" fill="none" xmlns="http://www.w3.org/2000/svg">
<circle cx="30" cy="30" r="30" fill="#D3D3D3"/>
<path d="M30.3098 33.8281L30.084 33.828L29.8582 33.8281L29.353 33.8298C25.4916 33.8551 16.666 34.243 16.666 40.192C16.666 46.1653 25.4916 46.5548 29.353 46.5802L30.8752 46.5802C34.9838 46.555 43.5 46.1675 43.5 40.226C43.5 34.2453 34.6762 33.8552 30.815 33.8298L30.3098 33.8281Z" fill="#F5F5F5"/>
<path d="M39.222 22.138C39.222 17.1 35.124 13 30.084 13C25.046 13 20.9479 17.1 20.9479 22.132C20.938 24.566 21.876 26.858 23.592 28.584C25.304 30.312 27.59 31.268 30.03 31.276H30.084C35.124 31.276 39.222 27.176 39.222 22.138Z" fill="#F5F5F5"/>
</svg>
