<svg width="34" height="34" viewBox="0 0 34 34" fill="none" xmlns="http://www.w3.org/2000/svg">
<path d="M17 0.333496C7.81665 0.333496 0.333313 7.81683 0.333313 17.0002C0.333313 26.1835 7.81665 33.6668 17 33.6668C26.1833 33.6668 33.6666 26.1835 33.6666 17.0002C33.6666 7.81683 26.1833 0.333496 17 0.333496ZM21.8166 16.3002L17.8 19.6335C17.5666 19.8168 17.2833 19.9168 17 19.9168C16.7166 19.9168 16.4333 19.8168 16.2 19.6335L12.1833 16.3002C11.65 15.8668 11.5666 15.0668 12.0166 14.5335C12.45 14.0168 13.25 13.9335 13.7666 14.3668L17 17.0335L20.2333 14.3668C20.7666 13.9335 21.55 14.0002 21.9833 14.5335C22.4333 15.0668 22.35 15.8668 21.8166 16.3002Z" fill="#9E9E9E"/>
</svg>
