<svg width="34" height="34" viewBox="0 0 34 34" fill="none" xmlns="http://www.w3.org/2000/svg">
<path d="M16.6667 0C7.48333 0 0 7.48333 0 16.6667C0 25.85 7.48333 33.3333 16.6667 33.3333C25.85 33.3333 33.3333 25.85 33.3333 16.6667C33.3333 7.48333 25.85 0 16.6667 0ZM21.4833 15.9667L17.4667 19.3C17.2333 19.4833 16.95 19.5833 16.6667 19.5833C16.3833 19.5833 16.1 19.4833 15.8667 19.3L11.85 15.9667C11.3167 15.5333 11.2333 14.7333 11.6833 14.2C12.1167 13.6833 12.9167 13.6 13.4333 14.0333L16.6667 16.7L19.9 14.0333C20.4333 13.6 21.2167 13.6667 21.65 14.2C22.1 14.7333 22.0167 15.5333 21.4833 15.9667Z" fill="#D3D3D3"/>
</svg>
