<svg width="21" height="17" viewBox="0 0 21 17" fill="none" xmlns="http://www.w3.org/2000/svg">
<path d="M14.3551 15.3434H16.2351C18.4151 15.3434 20.0051 12.9234 20.0051 10.8834C19.9916 10.2178 19.8418 9.56202 19.5649 8.95659C19.2879 8.35116 18.8898 7.80894 18.3951 7.36342C17.6156 6.69176 16.6012 6.35723 15.5751 6.43342C15.4857 6.4431 15.3953 6.43496 15.3091 6.40947C15.2229 6.38398 15.1426 6.34164 15.0728 6.28491C15.0031 6.22819 14.9453 6.15819 14.9028 6.07897C14.8602 5.99976 14.8339 5.9129 14.8251 5.82342C14.4151 -0.696581 4.65512 -0.606581 4.50512 6.09342C4.50271 6.23018 4.46085 6.36334 4.38457 6.47687C4.30828 6.59041 4.20083 6.6795 4.07512 6.73342C3.15081 7.1912 2.40583 7.94452 1.95837 8.87387C1.5109 9.80322 1.38658 10.8554 1.60512 11.8634C1.73015 12.4913 1.98628 13.0857 2.35676 13.6079C2.72725 14.13 3.20375 14.5681 3.75512 14.8934C4.44627 15.2684 5.23124 15.4351 6.01512 15.3734H7.26512" stroke="#F5F5F5" stroke-width="1.5" stroke-linecap="round" stroke-linejoin="round"/>
<path d="M10.7551 15.3836V8.45361" stroke="#F5F5F5" stroke-width="1.5" stroke-linecap="round" stroke-linejoin="round"/>
<path d="M8.58508 10.4535L10.7551 8.29346L12.9251 10.4535" stroke="#F5F5F5" stroke-width="1.5" stroke-linecap="round" stroke-linejoin="round"/>
</svg>
