<svg width="136" height="32" viewBox="0 0 136 32" fill="none" xmlns="http://www.w3.org/2000/svg">
<g clip-path="url(#clip0_89_3660)">
<path d="M11.6717 31.3799C5.47074 31.3799 0.35498 27.7369 0.35498 20.3325C0.35498 12.9281 5.47074 9.28506 11.6717 9.28506C17.8726 9.28506 22.9883 12.9281 22.9883 20.3325C22.9883 27.7369 17.8318 31.3799 11.6717 31.3799ZM11.6717 15.2167C9.03626 15.2167 7.02097 16.922 7.02097 20.3325C7.02097 23.743 9.03626 25.4482 11.6717 25.4482C14.307 25.4482 16.2856 23.743 16.2856 20.3325C16.2856 16.922 14.307 15.2167 11.6717 15.2167V15.2167Z" fill="#9E9E9E"/>
<path d="M55.7431 19.6349C55.7431 23.588 55.7431 28.5487 55.6248 31.1841C54.5396 31.4941 50.509 31.4941 49.1505 31.1841C49.1138 29.6339 49.1505 21.3768 49.1505 20.0224C49.1505 16.9587 48.763 14.9842 46.7069 14.9842C44.8833 14.9842 44.1857 16.5752 44.0715 19.0556C44.1123 19.3656 44.1123 19.6757 44.1123 20.0265C44.1123 23.9796 44.1123 28.5528 43.994 31.1882C42.9088 31.4982 38.6824 31.4982 37.328 31.1882C37.2872 29.6379 37.328 21.3809 37.328 20.0265C37.328 16.9628 36.9404 14.9883 34.8843 14.9883C33.2158 14.9883 32.4815 16.3468 32.2857 18.4763C32.3224 24.0204 32.2449 30.258 32.1306 31.1922C30.5804 31.5023 27.0149 31.5023 25.8114 31.1922C25.6156 29.3687 25.6156 11.3452 25.8114 9.48495C27.1699 9.25242 30.7354 9.25242 32.1306 9.48495C32.1714 9.68077 32.1714 10.105 32.2082 10.6884C33.3341 9.75828 34.6518 9.29321 36.047 9.29321C38.5274 9.29321 40.5427 10.3009 41.9379 12.1611C43.3739 10.1826 45.5034 9.29321 47.8695 9.29321C52.8303 9.29321 55.739 12.512 55.739 19.643L55.7431 19.6349Z" fill="#9E9E9E"/>
<path d="M69.5033 31.3799C63.3024 31.3799 58.1866 27.7369 58.1866 20.3325C58.1866 12.9281 63.3024 9.28506 69.5033 9.28506C75.7042 9.28506 80.82 12.9281 80.82 20.3325C80.82 27.7369 75.6634 31.3799 69.5033 31.3799ZM69.5033 15.2167C66.8679 15.2167 64.8526 16.922 64.8526 20.3325C64.8526 23.743 66.8679 25.4482 69.5033 25.4482C72.1387 25.4482 74.1173 23.743 74.1173 20.3325C74.1173 16.922 72.1387 15.2167 69.5033 15.2167Z" fill="#9E9E9E"/>
<path d="M101.711 28.1978C100.781 29.2463 97.95 31.3758 96.6731 31.9959C95.6655 31.0658 92.3692 26.8801 90.1622 24.0122C90.1255 27.7736 90.0847 30.6415 90.0479 31.1841C88.8078 31.4574 85.2422 31.4574 83.6512 31.1841C83.4187 29.7889 83.4187 1.60733 83.6512 0.175408C85.0872 -0.0571265 88.6527 -0.0571265 90.0479 0.175408C90.1255 0.913807 90.1622 8.50993 90.1622 16.0285C92.1408 13.1606 94.6986 9.63181 95.5513 8.62416C96.8322 9.16674 99.9327 11.1453 100.977 12.1897C100.394 13.2381 97.489 17.1912 95.1229 20.0183C97.5666 22.8496 101.014 27.0719 101.711 28.1978V28.1978Z" fill="#9E9E9E"/>
<path d="M120.898 31.1841C119.58 31.3799 115.974 31.3799 114.542 31.1841C114.542 30.9516 114.501 30.6823 114.501 30.3315C113.375 30.9923 111.98 31.3799 110.47 31.3799C105.159 31.3799 102.523 28.9771 102.523 24.4406C102.523 19.9041 105.159 17.6196 110.47 17.6196C111.984 17.6196 113.338 17.9663 114.464 18.5905C114.154 16.0326 112.951 15.0617 109.813 15.0617C108.496 15.0617 106.44 15.3717 104.502 15.8001C104.074 14.3274 103.686 11.6145 103.686 10.0235C105.355 9.51759 108.765 9.17083 111.09 9.28505C117.446 9.5951 120.702 12.8914 120.934 18.2764C121.089 21.6502 121.089 29.2055 120.894 31.1841H120.898ZM114.464 24.3223C114.464 23.0821 113.534 22.3845 111.865 22.3845C109.928 22.3845 108.998 23.0821 108.998 24.3631C108.998 25.6441 109.891 26.2641 111.865 26.2641C113.534 26.2641 114.464 25.5665 114.464 24.3264V24.3223Z" fill="#9E9E9E"/>
<path d="M135.47 31.3024C134.809 31.3799 134.307 31.4207 133.377 31.3799C127.6 31.1474 124.696 28.0061 124.696 21.8052V15.2167C123.068 15.2167 121.864 15.2167 121.673 15.1759C121.399 14.7109 121.399 10.2927 121.673 9.4768C121.673 9.43601 122.954 9.39929 124.736 9.39929C124.777 6.41306 124.777 4.32025 124.777 3.77767C126.172 3.54514 129.893 3.54514 131.288 3.77767C131.329 4.55279 131.329 6.72311 131.366 9.39929C133.267 9.39929 134.854 9.43601 135.474 9.4768C135.67 10.0969 135.67 14.2458 135.474 15.1351C134.854 15.1719 133.303 15.2127 131.402 15.2127V22.0337C131.402 24.2815 132.255 25.2116 133.769 25.3299C134.389 25.3667 134.894 25.3667 135.474 25.3299C135.706 26.4151 135.706 30.2132 135.474 31.2983L135.47 31.3024Z" fill="#9E9E9E"/>
</g>
<defs>
<clipPath id="clip0_89_3660">
<rect width="135.29" height="32" fill="white" transform="translate(0.35498)"/>
</clipPath>
</defs>
</svg>
