<svg width="80" height="19" viewBox="0 0 80 19" fill="none" xmlns="http://www.w3.org/2000/svg">
<g clip-path="url(#clip0_136_26)">
<path d="M6.69179 18.5556C3.02506 18.5556 0 16.4014 0 12.023C0 7.64466 3.02506 5.49045 6.69179 5.49045C10.3585 5.49045 13.3836 7.64466 13.3836 12.023C13.3836 16.4014 10.3344 18.5556 6.69179 18.5556ZM6.69179 8.99797C5.13343 8.99797 3.94174 10.0063 3.94174 12.023C3.94174 14.0397 5.13343 15.0481 6.69179 15.0481C8.25016 15.0481 9.42014 14.0397 9.42014 12.023C9.42014 10.0063 8.25016 8.99797 6.69179 8.99797V8.99797Z" fill="#222222"/>
<path d="M32.7522 11.6105C32.7522 13.9481 32.7521 16.8815 32.6822 18.4398C32.0405 18.6232 29.6571 18.6232 28.8538 18.4398C28.8321 17.5231 28.8538 12.6406 28.8538 11.8397C28.8538 10.028 28.6247 8.86047 27.4088 8.86047C26.3305 8.86047 25.918 9.80127 25.8505 11.268C25.8746 11.4513 25.8746 11.6346 25.8746 11.8421C25.8746 14.1796 25.8746 16.8839 25.8046 18.4422C25.163 18.6256 22.6638 18.6256 21.8629 18.4422C21.8388 17.5255 21.8629 12.643 21.8629 11.8421C21.8629 10.0304 21.6337 8.86288 20.4179 8.86288C19.4313 8.86288 18.9971 9.66618 18.8813 10.9254C18.903 14.2038 18.8571 17.8922 18.7896 18.4446C17.8729 18.628 15.7645 18.628 15.0529 18.4446C14.9371 17.3663 14.9371 6.70867 15.0529 5.60865C15.8562 5.47115 17.9646 5.47115 18.7896 5.60865C18.8137 5.72444 18.8137 5.97532 18.8354 6.32029C19.5012 5.77028 20.2804 5.49527 21.1054 5.49527C22.5721 5.49527 23.7638 6.09111 24.5888 7.19114C25.438 6.02116 26.6972 5.49527 28.0964 5.49527C31.0297 5.49527 32.7497 7.3986 32.7497 11.6153L32.7522 11.6105Z" fill="#222222"/>
<path d="M40.8889 18.5556C37.2222 18.5556 34.1971 16.4014 34.1971 12.023C34.1971 7.64466 37.2222 5.49045 40.8889 5.49045C44.5557 5.49045 47.5807 7.64466 47.5807 12.023C47.5807 16.4014 44.5316 18.5556 40.8889 18.5556ZM40.8889 8.99797C39.3306 8.99797 38.1389 10.0063 38.1389 12.023C38.1389 14.0397 39.3306 15.0481 40.8889 15.0481C42.4473 15.0481 43.6173 14.0397 43.6173 12.023C43.6173 10.0063 42.4473 8.99797 40.8889 8.99797Z" fill="#222222"/>
<path d="M59.9342 16.674C59.3842 17.294 57.7101 18.5532 56.955 18.9199C56.3592 18.3699 54.41 15.8948 53.1049 14.199C53.0832 16.4231 53.0591 18.119 53.0374 18.4398C52.304 18.6015 50.1957 18.6015 49.2549 18.4398C49.1174 17.6148 49.1174 0.950464 49.2549 0.103737C50.104 -0.0337653 52.2124 -0.0337653 53.0374 0.103737C53.0832 0.540368 53.1049 5.03212 53.1049 9.47804C54.2749 7.78217 55.7874 5.69551 56.2916 5.09967C57.0491 5.42051 58.8825 6.59048 59.5 7.20804C59.1551 7.82801 57.4375 10.1656 56.0383 11.8373C57.4833 13.5114 59.5217 16.0082 59.9342 16.674V16.674Z" fill="#222222"/>
<path d="M71.2794 18.4398C70.5002 18.5556 68.3677 18.5556 67.521 18.4398C67.521 18.3023 67.4969 18.1431 67.4969 17.9356C66.8311 18.3264 66.0061 18.5556 65.1135 18.5556C61.9727 18.5556 60.4143 17.1348 60.4143 14.4522C60.4143 11.7697 61.9727 10.4188 65.1135 10.4188C66.0085 10.4188 66.8094 10.6239 67.4752 10.993C67.2918 9.48044 66.5802 8.90631 64.7251 8.90631C63.946 8.90631 62.7301 9.08965 61.5843 9.34294C61.331 8.47209 61.1018 6.86789 61.1018 5.92708C62.0885 5.62796 64.1052 5.42291 65.4802 5.49045C69.2386 5.67379 71.1636 7.62295 71.3011 10.8072C71.3928 12.8022 71.3928 17.2698 71.277 18.4398H71.2794ZM67.4752 14.3823C67.4752 13.6489 66.9252 13.2364 65.9385 13.2364C64.7927 13.2364 64.2427 13.6489 64.2427 14.4064C64.2427 15.1639 64.771 15.5306 65.9385 15.5306C66.9252 15.5306 67.4752 15.1181 67.4752 14.3847V14.3823Z" fill="#222222"/>
<path d="M79.8963 18.5098C79.5055 18.5556 79.2088 18.5797 78.6588 18.5556C75.2429 18.4181 73.5253 16.5606 73.5253 12.8939V8.99797C72.5628 8.99797 71.8512 8.99797 71.7378 8.97384C71.5762 8.69884 71.5762 6.08629 71.7378 5.60382C71.7378 5.5797 72.4953 5.55799 73.5495 5.55799C73.5736 3.79217 73.5736 2.55464 73.5736 2.2338C74.3986 2.0963 76.5986 2.0963 77.4237 2.2338C77.4478 2.69215 77.4478 3.9755 77.4695 5.55799C78.5936 5.55799 79.532 5.5797 79.8987 5.60382C80.0145 5.9705 80.0145 8.42383 79.8987 8.94972C79.532 8.97143 78.6153 8.99556 77.4912 8.99556V13.029C77.4912 14.3582 77.9954 14.9082 78.8903 14.9781C79.257 14.9998 79.5561 14.9998 79.8987 14.9781C80.0362 15.6198 80.0362 17.8657 79.8987 18.5074L79.8963 18.5098Z" fill="#222222"/>
</g>
<defs>
<clipPath id="clip0_136_26">
<rect width="80" height="18.9223" fill="white"/>
</clipPath>
</defs>
</svg>
