<svg width="300" height="71" viewBox="0 0 300 71" fill="none" xmlns="http://www.w3.org/2000/svg">
<g clip-path="url(#clip0_109_41)">
<path d="M25.0942 69.5836C11.344 69.5836 0 61.5053 0 45.0864C0 28.6675 11.344 20.5892 25.0942 20.5892C38.8445 20.5892 50.1885 28.6675 50.1885 45.0864C50.1885 61.5053 38.754 69.5836 25.0942 69.5836ZM25.0942 33.7424C19.2504 33.7424 14.7815 37.5237 14.7815 45.0864C14.7815 52.649 19.2504 56.4304 25.0942 56.4304C30.9381 56.4304 35.3255 52.649 35.3255 45.0864C35.3255 37.5237 30.9381 33.7424 25.0942 33.7424V33.7424Z" fill="#7F57F1"/>
<path d="M122.821 43.5395C122.821 52.3053 122.821 63.3055 122.558 69.1494C120.152 69.8369 111.214 69.8369 108.202 69.1494C108.121 65.7118 108.202 47.4022 108.202 44.3989C108.202 37.6052 107.343 33.2268 102.783 33.2268C98.7396 33.2268 97.1927 36.7548 96.9394 42.2549C97.0298 42.9424 97.0298 43.6299 97.0298 44.4079C97.0298 53.1737 97.0298 63.3145 96.7675 69.1584C94.3612 69.8459 84.9893 69.8459 81.986 69.1584C81.8955 65.7208 81.986 47.4113 81.986 44.4079C81.986 37.6142 81.1266 33.2358 76.5673 33.2358C72.8674 33.2358 71.239 36.2482 70.8048 40.9704C70.8862 53.2642 70.7144 67.0959 70.4611 69.1674C67.0235 69.855 59.1171 69.855 56.4485 69.1674C56.0142 65.1238 56.0142 25.1576 56.4485 21.0325C59.4609 20.5168 67.3673 20.5168 70.4611 21.0325C70.5515 21.4667 70.5515 22.4075 70.6329 23.7011C73.1297 21.6386 76.0516 20.6073 79.1454 20.6073C84.6455 20.6073 89.1144 22.8417 92.2082 26.9668C95.3925 22.5794 100.115 20.6073 105.361 20.6073C116.362 20.6073 122.812 27.7448 122.812 43.5576L122.821 43.5395Z" fill="#7F57F1"/>
<path d="M153.333 69.5836C139.583 69.5836 128.239 61.5053 128.239 45.0864C128.239 28.6675 139.583 20.5892 153.333 20.5892C167.084 20.5892 178.428 28.6675 178.428 45.0864C178.428 61.5053 166.993 69.5836 153.333 69.5836ZM153.333 33.7424C147.49 33.7424 143.021 37.5237 143.021 45.0864C143.021 52.649 147.49 56.4304 153.333 56.4304C159.177 56.4304 163.565 52.649 163.565 45.0864C163.565 37.5237 159.177 33.7424 153.333 33.7424Z" fill="#7F57F1"/>
<path d="M225.556 62.5253C223.494 64.8501 217.216 69.5723 214.384 70.9473C212.15 68.8848 204.84 59.6033 199.946 53.2438C199.865 61.5845 199.775 67.944 199.693 69.1471C196.943 69.7532 189.037 69.7532 185.509 69.1471C184.993 66.0533 184.993 3.56195 185.509 0.386726C188.693 -0.128909 196.599 -0.128909 199.693 0.386726C199.865 2.02409 199.946 18.8682 199.946 35.5404C204.334 29.1809 210.006 21.3559 211.897 19.1215C214.737 20.3246 221.612 24.712 223.928 27.0279C222.634 29.3527 216.193 38.1185 210.947 44.3876C216.365 50.6657 224.009 60.0285 225.556 62.5253V62.5253Z" fill="#7F57F1"/>
<path d="M267.298 69.1493C264.376 69.5836 256.379 69.5836 253.204 69.1493C253.204 68.6337 253.113 68.0367 253.113 67.2587C250.617 68.7242 247.523 69.5836 244.176 69.5836C232.398 69.5836 226.554 64.2553 226.554 54.1959C226.554 44.1365 232.398 39.0706 244.176 39.0706C247.532 39.0706 250.535 39.8396 253.032 41.2236C252.344 35.5517 249.676 33.3987 242.719 33.3987C239.797 33.3987 235.238 34.0862 230.941 35.036C229.991 31.7703 229.132 25.7546 229.132 22.2266C232.832 21.1048 240.394 20.3359 245.551 20.5892C259.645 21.2767 266.864 28.5861 267.379 40.5271C267.723 48.0083 267.723 64.7619 267.289 69.1493H267.298ZM253.032 53.9336C253.032 51.1835 250.969 49.6366 247.27 49.6366C242.973 49.6366 240.91 51.1835 240.91 54.0241C240.91 56.8646 242.891 58.2396 247.27 58.2396C250.969 58.2396 253.032 56.6927 253.032 53.9426V53.9336Z" fill="#7F57F1"/>
<path d="M299.611 69.4117C298.146 69.5836 297.033 69.674 294.97 69.5836C282.161 69.0679 275.72 62.1023 275.72 48.3521V33.7424C272.111 33.7424 269.442 33.7424 269.017 33.652C268.411 32.6207 268.411 22.8236 269.017 21.0144C269.017 20.9239 271.857 20.8425 275.81 20.8425C275.901 14.2207 275.901 9.57996 275.901 8.37681C278.995 7.86117 287.245 7.86117 290.339 8.37681C290.429 10.0956 290.429 14.9082 290.511 20.8425C294.726 20.8425 298.245 20.9239 299.62 21.0144C300.054 22.3894 300.054 31.5894 299.62 33.5615C298.245 33.6429 294.808 33.7334 290.592 33.7334V48.8587C290.592 53.8431 292.483 55.9057 295.839 56.168C297.214 56.2494 298.336 56.2494 299.62 56.168C300.136 58.5743 300.136 66.9964 299.62 69.4027L299.611 69.4117Z" fill="#7F57F1"/>
</g>
<defs>
<clipPath id="clip0_109_41">
<rect width="300" height="70.9586" fill="white"/>
</clipPath>
</defs>
</svg>
