<svg width="500" height="500" viewBox="0 0 500 500" fill="none" xmlns="http://www.w3.org/2000/svg">
<g clip-path="url(#clip0_187_65)">
<g filter="url(#filter0_f_187_65)">
<circle cx="250" cy="250" r="128" fill="#FFFBDB"/>
</g>
</g>
<path d="M350 75H325V100H350V75Z" fill="black"/>
<path d="M375 75H350V100H375V75Z" fill="black"/>
<path d="M125 100H100V125H125V100Z" fill="black"/>
<path d="M225 100H200V125H225V100Z" fill="black"/>
<path d="M325 100H300V125H325V100Z" fill="black"/>
<path d="M350 100H325V125H350V100Z" fill="#E3E3E3"/>
<path d="M375 100H350V125H375V100Z" fill="white"/>
<path d="M400 100H375V125H400V100Z" fill="black"/>
<path d="M100 125H75V150H100V125Z" fill="black"/>
<path d="M125 125H100V150H125V125Z" fill="#424242"/>
<path d="M150 125H125V150H150V125Z" fill="black"/>
<path d="M175 125H150V150H175V125Z" fill="black"/>
<path d="M200 125H175V150H200V125Z" fill="black"/>
<path d="M225 125H200V150H225V125Z" fill="#FEAE34"/>
<path d="M250 125H225V150H250V125Z" fill="black"/>
<path d="M350 125H325V150H350V125Z" fill="black"/>
<path d="M375 125H350V150H375V125Z" fill="#E3E3E3"/>
<path d="M400 125H375V150H400V125Z" fill="white"/>
<path d="M425 125H400V150H425V125Z" fill="black"/>
<path d="M100 150H75V175H100V150Z" fill="black"/>
<path d="M125 150H100V175H125V150Z" fill="#424242"/>
<path d="M150 150H125V175H150V150Z" fill="#393939"/>
<path d="M175 150H150V175H175V150Z" fill="white"/>
<path d="M200 150H175V175H200V150Z" fill="white"/>
<path d="M225 150H200V175H225V150Z" fill="#FEAE34"/>
<path d="M250 150H225V175H250V150Z" fill="black"/>
<path d="M375 150H350V175H375V150Z" fill="black"/>
<path d="M400 150H375V175H400V150Z" fill="#FEAE34"/>
<path d="M425 150H400V175H425V150Z" fill="black"/>
<path d="M75 175H50V200H75V175Z" fill="black"/>
<path d="M100 175H75V200H100V175Z" fill="white"/>
<path d="M125 175H100V200H125V175Z" fill="black"/>
<path d="M150 175H125V200H150V175Z" fill="white"/>
<path d="M175 175H150V200H175V175Z" fill="white"/>
<path d="M200 175H175V200H200V175Z" fill="black"/>
<path d="M225 175H200V200H225V175Z" fill="white"/>
<path d="M250 175H225V200H250V175Z" fill="white"/>
<path d="M275 175H250V200H275V175Z" fill="black"/>
<path d="M375 175H350V200H375V175Z" fill="black"/>
<path d="M400 175H375V200H400V175Z" fill="#424242"/>
<path d="M425 175H400V200H425V175Z" fill="black"/>
<path d="M75 200H50V225H75V200Z" fill="black"/>
<path d="M100 200H75V225H100V200Z" fill="#FEAE34"/>
<path d="M125 200H100V225H125V200Z" fill="#FEAE34"/>
<path d="M150 200H125V225H150V200Z" fill="black"/>
<path d="M175 200H150V225H175V200Z" fill="white"/>
<path d="M200 200H175V225H200V200Z" fill="white"/>
<path d="M225 200H200V225H225V200Z" fill="white"/>
<path d="M250 200H225V225H250V200Z" fill="#E3E3E3"/>
<path d="M275 200H250V225H275V200Z" fill="black"/>
<path d="M375 200H350V225H375V200Z" fill="black"/>
<path d="M400 200H375V225H400V200Z" fill="#424242"/>
<path d="M425 200H400V225H425V200Z" fill="black"/>
<path d="M100 225H75V250H100V225Z" fill="black"/>
<path d="M125 225H100V250H125V225Z" fill="#E39A2C"/>
<path d="M150 225H125V250H150V225Z" fill="#FEAE34"/>
<path d="M175 225H150V250H175V225Z" fill="white"/>
<path d="M200 225H175V250H200V225Z" fill="white"/>
<path d="M225 225H200V250H225V225Z" fill="#E3E3E3"/>
<path d="M250 225H225V250H250V225Z" fill="black"/>
<path d="M275 225H250V250H275V225Z" fill="black"/>
<path d="M300 225H275V250H300V225Z" fill="black"/>
<path d="M325 225H300V250H325V225Z" fill="black"/>
<path d="M350 225H325V250H350V225Z" fill="black"/>
<path d="M375 225H350V250H375V225Z" fill="black"/>
<path d="M400 225H375V250H400V225Z" fill="white"/>
<path d="M425 225H400V250H425V225Z" fill="black"/>
<path d="M125 250H100V275H125V250Z" fill="black"/>
<path d="M150 250H125V275H150V250Z" fill="black"/>
<path d="M175 250H150V275H175V250Z" fill="black"/>
<path d="M200 250H175V275H200V250Z" fill="white"/>
<path d="M225 250H200V275H225V250Z" fill="white"/>
<path d="M250 250H225V275H250V250Z" fill="white"/>
<path d="M275 250H250V275H275V250Z" fill="white"/>
<path d="M300 250H275V275H300V250Z" fill="#FEAE34"/>
<path d="M325 250H300V275H325V250Z" fill="#FEAE34"/>
<path d="M350 250H325V275H350V250Z" fill="#E39A2C"/>
<path d="M375 250H350V275H375V250Z" fill="white"/>
<path d="M400 250H375V275H400V250Z" fill="white"/>
<path d="M425 250H400V275H425V250Z" fill="black"/>
<path d="M150 275H125V300H150V275Z" fill="black"/>
<path d="M175 275H150V300H175V275Z" fill="#FEAE34"/>
<path d="M200 275H175V300H200V275Z" fill="white"/>
<path d="M225 275H200V300H225V275Z" fill="#424242"/>
<path d="M250 275H225V300H250V275Z" fill="#424242"/>
<path d="M275 275H250V300H275V275Z" fill="white"/>
<path d="M300 275H275V300H300V275Z" fill="white"/>
<path d="M325 275H300V300H325V275Z" fill="white"/>
<path d="M350 275H325V300H350V275Z" fill="white"/>
<path d="M375 275H350V300H375V275Z" fill="white"/>
<path d="M400 275H375V300H400V275Z" fill="#424242"/>
<path d="M425 275H400V300H425V275Z" fill="black"/>
<path d="M150 300H125V325H150V300Z" fill="black"/>
<path d="M175 300H150V325H175V300Z" fill="#FEAE34"/>
<path d="M200 300H175V325H200V300Z" fill="#FEAE34"/>
<path d="M225 300H200V325H225V300Z" fill="#424242"/>
<path d="M250 300H225V325H250V300Z" fill="#393939"/>
<path d="M275 300H250V325H275V300Z" fill="#393939"/>
<path d="M300 300H275V325H300V300Z" fill="#393939"/>
<path d="M325 300H300V325H325V300Z" fill="white"/>
<path d="M350 300H325V325H350V300Z" fill="white"/>
<path d="M375 300H350V325H375V300Z" fill="#424242"/>
<path d="M400 300H375V325H400V300Z" fill="#393939"/>
<path d="M425 300H400V325H425V300Z" fill="black"/>
<path d="M150 325H125V350H150V325Z" fill="black"/>
<path d="M175 325H150V350H175V325Z" fill="#E39A2C"/>
<path d="M200 325H175V350H200V325Z" fill="black"/>
<path d="M225 325H200V350H225V325Z" fill="#FEAE34"/>
<path d="M250 325H225V350H250V325Z" fill="black"/>
<path d="M275 325H250V350H275V325Z" fill="black"/>
<path d="M300 325H275V350H300V325Z" fill="black"/>
<path d="M325 325H300V350H325V325Z" fill="black"/>
<path d="M350 325H325V350H350V325Z" fill="black"/>
<path d="M375 325H350V350H375V325Z" fill="black"/>
<path d="M400 325H375V350H400V325Z" fill="#393939"/>
<path d="M425 325H400V350H425V325Z" fill="black"/>
<path d="M150 350H125V375H150V350Z" fill="black"/>
<path d="M175 350H150V375H175V350Z" fill="white"/>
<path d="M200 350H175V375H200V350Z" fill="black"/>
<path d="M225 350H200V375H225V350Z" fill="white"/>
<path d="M250 350H225V375H250V350Z" fill="black"/>
<path d="M325 350H300V375H325V350Z" fill="black"/>
<path d="M350 350H325V375H350V350Z" fill="#E3E3E3"/>
<path d="M375 350H350V375H375V350Z" fill="black"/>
<path d="M400 350H375V375H400V350Z" fill="white"/>
<path d="M425 350H400V375H425V350Z" fill="black"/>
<path d="M150 375H125V400H150V375Z" fill="black"/>
<path d="M175 375H150V400H175V375Z" fill="#E3E3E3"/>
<path d="M200 375H175V400H200V375Z" fill="black"/>
<path d="M225 375H200V400H225V375Z" fill="#E3E3E3"/>
<path d="M250 375H225V400H250V375Z" fill="black"/>
<path d="M325 375H300V400H325V375Z" fill="black"/>
<path d="M350 375H325V400H350V375Z" fill="#E3E3E3"/>
<path d="M375 375H350V400H375V375Z" fill="black"/>
<path d="M400 375H375V400H400V375Z" fill="#E3E3E3"/>
<path d="M425 375H400V400H425V375Z" fill="black"/>
<path d="M150 400H125V425H150V400Z" fill="black"/>
<path d="M175 400H150V425H175V400Z" fill="black"/>
<path d="M200 400H175V425H200V400Z" fill="black"/>
<path d="M225 400H200V425H225V400Z" fill="black"/>
<path d="M250 400H225V425H250V400Z" fill="black"/>
<path d="M325 400H300V425H325V400Z" fill="black"/>
<path d="M350 400H325V425H350V400Z" fill="black"/>
<path d="M375 400H350V425H375V400Z" fill="black"/>
<path d="M400 400H375V425H400V400Z" fill="black"/>
<path d="M425 400H400V425H425V400Z" fill="black"/>
<defs>
<filter id="filter0_f_187_65" x="-75" y="-75" width="650" height="650" filterUnits="userSpaceOnUse" color-interpolation-filters="sRGB">
<feFlood flood-opacity="0" result="BackgroundImageFix"/>
<feBlend mode="normal" in="SourceGraphic" in2="BackgroundImageFix" result="shape"/>
<feGaussianBlur stdDeviation="98.5" result="effect1_foregroundBlur_187_65"/>
</filter>
<clipPath id="clip0_187_65">
<rect width="500" height="500" fill="white"/>
</clipPath>
</defs>
</svg>
