<svg width="500" height="500" viewBox="0 0 500 500" fill="none" xmlns="http://www.w3.org/2000/svg">
<g clip-path="url(#clip0_187_35)">
<g filter="url(#filter0_f_187_35)">
<circle cx="251" cy="250" r="128" fill="#FFFBDB"/>
</g>
<path d="M175 50H150V75H175V50Z" fill="#FEE761"/>
<path d="M200 50H175V75H200V50Z" fill="#FEE761"/>
<path d="M175 75H150V100H175V75Z" fill="#ECD657"/>
<path d="M100 100H75V125H100V100Z" fill="#FEE761"/>
<path d="M125 100H100V125H125V100Z" fill="#FEE761"/>
<path d="M150 100H125V125H150V100Z" fill="#FEE761"/>
<path d="M200 100H175V125H200V100Z" fill="#FEE761"/>
<path d="M225 100H200V125H225V100Z" fill="#FEE761"/>
<path d="M250 100H225V125H250V100Z" fill="#FEE761"/>
<path d="M75 125H50V150H75V125Z" fill="#FEE761"/>
<path d="M100 125H75V150H100V125Z" fill="#AC3232"/>
<path d="M125 125H100V150H125V125Z" fill="#7B2222"/>
<path d="M150 125H125V150H150V125Z" fill="#AC3232"/>
<path d="M175 125H150V150H175V125Z" fill="#ECD657"/>
<path d="M200 125H175V150H200V125Z" fill="#AC3232"/>
<path d="M225 125H200V150H225V125Z" fill="#7B2222"/>
<path d="M250 125H225V150H250V125Z" fill="#AC3232"/>
<path d="M275 125H250V150H275V125Z" fill="#ECD657"/>
<path d="M75 150H50V175H75V150Z" fill="#ECD657"/>
<path d="M100 150H75V175H100V150Z" fill="#A12D2D"/>
<path d="M125 150H100V175H125V150Z" fill="#7B2222"/>
<path d="M150 150H125V175H150V150Z" fill="#A12D2D"/>
<path d="M175 150H150V175H175V150Z" fill="#7B2222"/>
<path d="M200 150H175V175H200V150Z" fill="#A12D2D"/>
<path d="M225 150H200V175H225V150Z" fill="#7B2222"/>
<path d="M250 150H225V175H250V150Z" fill="#A12D2D"/>
<path d="M275 150H250V175H275V150Z" fill="#ECD657"/>
<path d="M100 175H75V200H100V175Z" fill="#FEE761"/>
<path d="M125 175H100V200H125V175Z" fill="#FEE761"/>
<path d="M150 175H125V200H150V175Z" fill="#FEE761"/>
<path d="M175 175H150V200H175V175Z" fill="#FEE761"/>
<path d="M200 175H175V200H200V175Z" fill="#FEE761"/>
<path d="M225 175H200V200H225V175Z" fill="#ECD657"/>
<path d="M250 175H225V200H250V175Z" fill="#ECD657"/>
<path d="M100 200H75V225H100V200Z" fill="black"/>
<path d="M125 200H100V225H125V200Z" fill="#262626"/>
<path d="M150 200H125V225H150V200Z" fill="#262626"/>
<path d="M175 200H150V225H175V200Z" fill="#262626"/>
<path d="M200 200H175V225H200V200Z" fill="#1C1C1C"/>
<path d="M225 200H200V225H225V200Z" fill="#1C1C1C"/>
<path d="M250 200H225V225H250V200Z" fill="black"/>
<path d="M75 225H50V250H75V225Z" fill="black"/>
<path d="M100 225H75V250H100V225Z" fill="#262626"/>
<path d="M125 225H100V250H125V225Z" fill="#1FAEFF"/>
<path d="M150 225H125V250H150V225Z" fill="#262626"/>
<path d="M175 225H150V250H175V225Z" fill="#262626"/>
<path d="M200 225H175V250H200V225Z" fill="#1FAEFF"/>
<path d="M225 225H200V250H225V225Z" fill="#262626"/>
<path d="M250 225H225V250H250V225Z" fill="#262626"/>
<path d="M275 225H250V250H275V225Z" fill="black"/>
<path d="M75 250H50V275H75V250Z" fill="black"/>
<path d="M100 250H75V275H100V250Z" fill="#262626"/>
<path d="M125 250H100V275H125V250Z" fill="#262626"/>
<path d="M150 250H125V275H150V250Z" fill="black"/>
<path d="M175 250H150V275H175V250Z" fill="#262626"/>
<path d="M200 250H175V275H200V250Z" fill="#262626"/>
<path d="M225 250H200V275H225V250Z" fill="#262626"/>
<path d="M250 250H225V275H250V250Z" fill="#1C1C1C"/>
<path d="M275 250H250V275H275V250Z" fill="black"/>
<path d="M100 275H75V300H100V275Z" fill="black"/>
<path d="M125 275H100V300H125V275Z" fill="#262626"/>
<path d="M150 275H125V300H150V275Z" fill="#262626"/>
<path d="M175 275H150V300H175V275Z" fill="#262626"/>
<path d="M200 275H175V300H200V275Z" fill="#262626"/>
<path d="M225 275H200V300H225V275Z" fill="#1C1C1C"/>
<path d="M250 275H225V300H250V275Z" fill="black"/>
<path d="M275 275H250V300H275V275Z" fill="black"/>
<path d="M125 300H100V325H125V300Z" fill="black"/>
<path d="M150 300H125V325H150V300Z" fill="black"/>
<path d="M175 300H150V325H175V300Z" fill="black"/>
<path d="M200 300H175V325H200V300Z" fill="#262626"/>
<path d="M225 300H200V325H225V300Z" fill="#262626"/>
<path d="M250 300H225V325H250V300Z" fill="#1C1C1C"/>
<path d="M275 300H250V325H275V300Z" fill="black"/>
<path d="M300 300H275V325H300V300Z" fill="black"/>
<path d="M150 325H125V350H150V325Z" fill="black"/>
<path d="M175 325H150V350H175V325Z" fill="#1C1C1C"/>
<path d="M200 325H175V350H200V325Z" fill="#262626"/>
<path d="M225 325H200V350H225V325Z" fill="#262626"/>
<path d="M250 325H225V350H250V325Z" fill="#262626"/>
<path d="M275 325H250V350H275V325Z" fill="#262626"/>
<path d="M300 325H275V350H300V325Z" fill="#262626"/>
<path d="M325 325H300V350H325V325Z" fill="black"/>
<path d="M150 350H125V375H150V350Z" fill="black"/>
<path d="M175 350H150V375H175V350Z" fill="#262626"/>
<path d="M200 350H175V375H200V350Z" fill="#262626"/>
<path d="M225 350H200V375H225V350Z" fill="#262626"/>
<path d="M250 350H225V375H250V350Z" fill="#262626"/>
<path d="M275 350H250V375H275V350Z" fill="#262626"/>
<path d="M300 350H275V375H300V350Z" fill="#262626"/>
<path d="M325 350H300V375H325V350Z" fill="#262626"/>
<path d="M350 350H325V375H350V350Z" fill="black"/>
<path d="M150 375H125V400H150V375Z" fill="black"/>
<path d="M175 375H150V400H175V375Z" fill="#262626"/>
<path d="M200 375H175V400H200V375Z" fill="black"/>
<path d="M225 375H200V400H225V375Z" fill="#262626"/>
<path d="M250 375H225V400H250V375Z" fill="black"/>
<path d="M275 375H250V400H275V375Z" fill="#262626"/>
<path d="M300 375H275V400H300V375Z" fill="#262626"/>
<path d="M325 375H300V400H325V375Z" fill="#262626"/>
<path d="M350 375H325V400H350V375Z" fill="#262626"/>
<path d="M375 375H350V400H375V375Z" fill="black"/>
<path d="M150 400H125V425H150V400Z" fill="black"/>
<path d="M175 400H150V425H175V400Z" fill="#262626"/>
<path d="M200 400H175V425H200V400Z" fill="black"/>
<path d="M225 400H200V425H225V400Z" fill="#262626"/>
<path d="M250 400H225V425H250V400Z" fill="black"/>
<path d="M275 400H250V425H275V400Z" fill="black"/>
<path d="M300 400H275V425H300V400Z" fill="#262626"/>
<path d="M325 400H300V425H325V400Z" fill="#262626"/>
<path d="M350 400H325V425H350V400Z" fill="#262626"/>
<path d="M375 400H350V425H375V400Z" fill="black"/>
<path d="M400 400H375V425H400V400Z" fill="black"/>
<path d="M150 425H125V450H150V425Z" fill="black"/>
<path d="M175 425H150V450H175V425Z" fill="#1C1C1C"/>
<path d="M200 425H175V450H200V425Z" fill="black"/>
<path d="M225 425H200V450H225V425Z" fill="#1C1C1C"/>
<path d="M250 425H225V450H250V425Z" fill="black"/>
<path d="M275 425H250V450H275V425Z" fill="#1C1C1C"/>
<path d="M300 425H275V450H300V425Z" fill="#1C1C1C"/>
<path d="M325 425H300V450H325V425Z" fill="#262626"/>
<path d="M350 425H325V450H350V425Z" fill="#262626"/>
<path d="M375 425H350V450H375V425Z" fill="black"/>
<path d="M400 425H375V450H400V425Z" fill="#1C1C1C"/>
<path d="M425 425H400V450H425V425Z" fill="black"/>
<path d="M150 450H125V475H150V450Z" fill="black"/>
<path d="M175 450H150V475H175V450Z" fill="black"/>
<path d="M200 450H175V475H200V450Z" fill="black"/>
<path d="M225 450H200V475H225V450Z" fill="black"/>
<path d="M250 450H225V475H250V450Z" fill="black"/>
<path d="M275 450H250V475H275V450Z" fill="black"/>
<path d="M300 450H275V475H300V450Z" fill="black"/>
<path d="M325 450H300V475H325V450Z" fill="black"/>
<path d="M350 450H325V475H350V450Z" fill="black"/>
<path d="M375 450H350V475H375V450Z" fill="black"/>
<path d="M400 450H375V475H400V450Z" fill="black"/>
<path d="M425 450H400V475H425V450Z" fill="black"/>
</g>
<defs>
<filter id="filter0_f_187_35" x="-74" y="-75" width="650" height="650" filterUnits="userSpaceOnUse" color-interpolation-filters="sRGB">
<feFlood flood-opacity="0" result="BackgroundImageFix"/>
<feBlend mode="normal" in="SourceGraphic" in2="BackgroundImageFix" result="shape"/>
<feGaussianBlur stdDeviation="98.5" result="effect1_foregroundBlur_187_35"/>
</filter>
<clipPath id="clip0_187_35">
<rect width="500" height="500" fill="white"/>
</clipPath>
</defs>
</svg>
