<svg width="500" height="500" viewBox="0 0 500 500" fill="none" xmlns="http://www.w3.org/2000/svg">
<g clip-path="url(#clip0_187_27)">
<g filter="url(#filter0_f_187_27)">
<circle cx="251" cy="250" r="128" fill="#FFFBDB"/>
</g>
<path d="M150 75H125V100H150V75Z" fill="black"/>
<path d="M175 75H150V100H175V75Z" fill="black"/>
<path d="M200 75H175V100H200V75Z" fill="black"/>
<path d="M225 75H200V100H225V75Z" fill="black"/>
<path d="M250 75H225V100H250V75Z" fill="black"/>
<path d="M125 100H100V125H125V100Z" fill="black"/>
<path d="M150 100H125V125H150V100Z" fill="#DF7126"/>
<path d="M175 100H150V125H175V100Z" fill="#DF7126"/>
<path d="M200 100H175V125H200V100Z" fill="#DF7126"/>
<path d="M225 100H200V125H225V100Z" fill="#DF7126"/>
<path d="M250 100H225V125H250V100Z" fill="#DF7126"/>
<path d="M275 100H250V125H275V100Z" fill="black"/>
<path d="M100 125H75V150H100V125Z" fill="black"/>
<path d="M125 125H100V150H125V125Z" fill="#DF7126"/>
<path d="M150 125H125V150H150V125Z" fill="black"/>
<path d="M175 125H150V150H175V125Z" fill="#C6631F"/>
<path d="M200 125H175V150H200V125Z" fill="#DF7126"/>
<path d="M225 125H200V150H225V125Z" fill="#DF7126"/>
<path d="M250 125H225V150H250V125Z" fill="black"/>
<path d="M275 125H250V150H275V125Z" fill="#C6631F"/>
<path d="M300 125H275V150H300V125Z" fill="black"/>
<path d="M75 150H50V175H75V150Z" fill="black"/>
<path d="M100 150H75V175H100V150Z" fill="#DF7126"/>
<path d="M125 150H100V175H125V150Z" fill="black"/>
<path d="M150 150H125V175H150V150Z" fill="#D9A066"/>
<path d="M175 150H150V175H175V150Z" fill="black"/>
<path d="M200 150H175V175H200V150Z" fill="black"/>
<path d="M225 150H200V175H225V150Z" fill="black"/>
<path d="M250 150H225V175H250V150Z" fill="#C6935E"/>
<path d="M275 150H250V175H275V150Z" fill="black"/>
<path d="M300 150H275V175H300V150Z" fill="#DF7126"/>
<path d="M325 150H300V175H325V150Z" fill="black"/>
<path d="M50 175H25V200H50V175Z" fill="black"/>
<path d="M75 175H50V200H75V175Z" fill="#DF7126"/>
<path d="M100 175H75V200H100V175Z" fill="#DF7126"/>
<path d="M125 175H100V200H125V175Z" fill="black"/>
<path d="M150 175H125V200H150V175Z" fill="#D9A066"/>
<path d="M175 175H150V200H175V175Z" fill="#D9A066"/>
<path d="M200 175H175V200H200V175Z" fill="#D9A066"/>
<path d="M225 175H200V200H225V175Z" fill="#D9A066"/>
<path d="M250 175H225V200H250V175Z" fill="#D9A066"/>
<path d="M275 175H250V200H275V175Z" fill="black"/>
<path d="M300 175H275V200H300V175Z" fill="#DF7126"/>
<path d="M325 175H300V200H325V175Z" fill="#DF7126"/>
<path d="M350 175H325V200H350V175Z" fill="black"/>
<path d="M50 200H25V225H50V200Z" fill="black"/>
<path d="M75 200H50V225H75V200Z" fill="#DF7126"/>
<path d="M100 200H75V225H100V200Z" fill="#DF7126"/>
<path d="M125 200H100V225H125V200Z" fill="black"/>
<path d="M150 200H125V225H150V200Z" fill="black"/>
<path d="M175 200H150V225H175V200Z" fill="#D9A066"/>
<path d="M200 200H175V225H200V200Z" fill="#D9A066"/>
<path d="M225 200H200V225H225V200Z" fill="black"/>
<path d="M250 200H225V225H250V200Z" fill="#D9A066"/>
<path d="M275 200H250V225H275V200Z" fill="black"/>
<path d="M300 200H275V225H300V200Z" fill="#DF7126"/>
<path d="M325 200H300V225H325V200Z" fill="#C6631F"/>
<path d="M350 200H325V225H350V200Z" fill="black"/>
<path d="M75 225H50V250H75V225Z" fill="black"/>
<path d="M100 225H75V250H100V225Z" fill="#DF7126"/>
<path d="M125 225H100V250H125V225Z" fill="black"/>
<path d="M150 225H125V250H150V225Z" fill="#D9A066"/>
<path d="M175 225H150V250H175V225Z" fill="black"/>
<path d="M200 225H175V250H200V225Z" fill="#D9A066"/>
<path d="M225 225H200V250H225V225Z" fill="#D9A066"/>
<path d="M250 225H225V250H250V225Z" fill="#C6935E"/>
<path d="M275 225H250V250H275V225Z" fill="black"/>
<path d="M300 225H275V250H300V225Z" fill="#C6631F"/>
<path d="M325 225H300V250H325V225Z" fill="black"/>
<path d="M75 250H50V275H75V250Z" fill="black"/>
<path d="M100 250H75V275H100V250Z" fill="#DF7126"/>
<path d="M125 250H100V275H125V250Z" fill="#C6631F"/>
<path d="M150 250H125V275H150V250Z" fill="black"/>
<path d="M175 250H150V275H175V250Z" fill="black"/>
<path d="M200 250H175V275H200V250Z" fill="black"/>
<path d="M225 250H200V275H225V250Z" fill="black"/>
<path d="M250 250H225V275H250V250Z" fill="black"/>
<path d="M275 250H250V275H275V250Z" fill="#C6631F"/>
<path d="M300 250H275V275H300V250Z" fill="#C6631F"/>
<path d="M325 250H300V275H325V250Z" fill="black"/>
<path d="M100 275H75V300H100V275Z" fill="black"/>
<path d="M125 275H100V300H125V275Z" fill="black"/>
<path d="M150 275H125V300H150V275Z" fill="#DF7126"/>
<path d="M175 275H150V300H175V275Z" fill="#DF7126"/>
<path d="M200 275H175V300H200V275Z" fill="#DF7126"/>
<path d="M225 275H200V300H225V275Z" fill="#DF7126"/>
<path d="M250 275H225V300H250V275Z" fill="#C6631F"/>
<path d="M275 275H250V300H275V275Z" fill="black"/>
<path d="M300 275H275V300H300V275Z" fill="black"/>
<path d="M150 300H125V325H150V300Z" fill="black"/>
<path d="M175 300H150V325H175V300Z" fill="black"/>
<path d="M200 300H175V325H200V300Z" fill="black"/>
<path d="M225 300H200V325H225V300Z" fill="black"/>
<path d="M250 300H225V325H250V300Z" fill="black"/>
<path d="M275 300H250V325H275V300Z" fill="#D9A066"/>
<path d="M300 300H275V325H300V300Z" fill="#D9A066"/>
<path d="M325 300H300V325H325V300Z" fill="black"/>
<path d="M350 300H325V325H350V300Z" fill="black"/>
<path d="M175 325H150V350H175V325Z" fill="black"/>
<path d="M200 325H175V350H200V325Z" fill="#D9A066"/>
<path d="M225 325H200V350H225V325Z" fill="#D9A066"/>
<path d="M250 325H225V350H250V325Z" fill="#D9A066"/>
<path d="M275 325H250V350H275V325Z" fill="#D9A066"/>
<path d="M300 325H275V350H300V325Z" fill="#D9A066"/>
<path d="M325 325H300V350H325V325Z" fill="#D9A066"/>
<path d="M350 325H325V350H350V325Z" fill="#D9A066"/>
<path d="M375 325H350V350H375V325Z" fill="black"/>
<path d="M175 350H150V375H175V350Z" fill="black"/>
<path d="M200 350H175V375H200V350Z" fill="#D9A066"/>
<path d="M225 350H200V375H225V350Z" fill="black"/>
<path d="M250 350H225V375H250V350Z" fill="#D9A066"/>
<path d="M275 350H250V375H275V350Z" fill="black"/>
<path d="M300 350H275V375H300V350Z" fill="#D9A066"/>
<path d="M325 350H300V375H325V350Z" fill="#D9A066"/>
<path d="M350 350H325V375H350V350Z" fill="#D9A066"/>
<path d="M375 350H350V375H375V350Z" fill="#D9A066"/>
<path d="M400 350H375V375H400V350Z" fill="black"/>
<path d="M175 375H150V400H175V375Z" fill="black"/>
<path d="M200 375H175V400H200V375Z" fill="#D9A066"/>
<path d="M225 375H200V400H225V375Z" fill="black"/>
<path d="M250 375H225V400H250V375Z" fill="#D9A066"/>
<path d="M275 375H250V400H275V375Z" fill="black"/>
<path d="M300 375H275V400H300V375Z" fill="black"/>
<path d="M325 375H300V400H325V375Z" fill="#D9A066"/>
<path d="M350 375H325V400H350V375Z" fill="#D9A066"/>
<path d="M375 375H350V400H375V375Z" fill="#D9A066"/>
<path d="M400 375H375V400H400V375Z" fill="black"/>
<path d="M425 375H400V400H425V375Z" fill="black"/>
<path d="M450 375H425V400H450V375Z" fill="black"/>
<path d="M175 400H150V425H175V400Z" fill="black"/>
<path d="M200 400H175V425H200V400Z" fill="#C6935E"/>
<path d="M225 400H200V425H225V400Z" fill="black"/>
<path d="M250 400H225V425H250V400Z" fill="#C6935E"/>
<path d="M275 400H250V425H275V400Z" fill="black"/>
<path d="M300 400H275V425H300V400Z" fill="#C6935E"/>
<path d="M325 400H300V425H325V400Z" fill="#C6935E"/>
<path d="M350 400H325V425H350V400Z" fill="#D9A066"/>
<path d="M375 400H350V425H375V400Z" fill="#D9A066"/>
<path d="M400 400H375V425H400V400Z" fill="black"/>
<path d="M425 400H400V425H425V400Z" fill="#C6935E"/>
<path d="M450 400H425V425H450V400Z" fill="#C6631F"/>
<path d="M475 400H450V425H475V400Z" fill="black"/>
<path d="M175 425H150V450H175V425Z" fill="black"/>
<path d="M200 425H175V450H200V425Z" fill="black"/>
<path d="M225 425H200V450H225V425Z" fill="black"/>
<path d="M250 425H225V450H250V425Z" fill="black"/>
<path d="M275 425H250V450H275V425Z" fill="black"/>
<path d="M300 425H275V450H300V425Z" fill="black"/>
<path d="M325 425H300V450H325V425Z" fill="black"/>
<path d="M350 425H325V450H350V425Z" fill="black"/>
<path d="M375 425H350V450H375V425Z" fill="black"/>
<path d="M400 425H375V450H400V425Z" fill="black"/>
<path d="M425 425H400V450H425V425Z" fill="black"/>
<path d="M450 425H425V450H450V425Z" fill="black"/>
<path d="M475 425H450V450H475V425Z" fill="black"/>
</g>
<defs>
<filter id="filter0_f_187_27" x="-74" y="-75" width="650" height="650" filterUnits="userSpaceOnUse" color-interpolation-filters="sRGB">
<feFlood flood-opacity="0" result="BackgroundImageFix"/>
<feBlend mode="normal" in="SourceGraphic" in2="BackgroundImageFix" result="shape"/>
<feGaussianBlur stdDeviation="98.5" result="effect1_foregroundBlur_187_27"/>
</filter>
<clipPath id="clip0_187_27">
<rect width="500" height="500" fill="white"/>
</clipPath>
</defs>
</svg>
